<svg xmlns="http://www.w3.org/2000/svg" xmlns:xlink="http://www.w3.org/1999/xlink" width="1080" zoomAndPan="magnify" viewBox="0 0 810 809.999993" height="1080" preserveAspectRatio="xMidYMid meet" version="1.0"><defs><clipPath id="8a3a98c679"><path d="M 70 0 L 740.46875 0 L 740.46875 810 L 70 810 Z M 70 0 " clip-rule="nonzero"/></clipPath></defs><g clip-path="url(#8a3a98c679)"><path fill="#000000" d="M 739.855469 776.296875 L 690.621094 227.332031 C 689.324219 212.261719 676.691406 200.921875 661.628906 200.921875 L 560.082031 200.921875 L 560.082031 154.902344 C 559.917969 69.511719 490.4375 0 405.085938 0 C 319.734375 0 250.253906 69.511719 250.253906 154.902344 L 250.253906 200.757812 L 148.542969 200.757812 C 133.480469 200.757812 121.011719 212.261719 119.550781 227.167969 L 70.15625 778.402344 C 69.507812 786.503906 72.097656 794.605469 77.605469 800.601562 C 83.113281 806.597656 90.886719 810 98.984375 810 L 711.027344 810 C 727.058594 810 740.015625 797.039062 740.015625 780.996094 C 740.179688 779.539062 740.015625 777.917969 739.855469 776.296875 Z M 308.398438 154.902344 C 308.398438 101.59375 351.800781 58.007812 405.085938 58.007812 C 458.371094 58.007812 501.777344 101.433594 501.777344 154.902344 L 501.777344 200.757812 L 308.398438 200.757812 Z M 130.890625 751.992188 L 175.105469 258.929688 L 250.253906 258.929688 L 250.253906 310.941406 C 250.253906 326.980469 263.210938 339.945312 279.242188 339.945312 C 295.277344 339.945312 308.234375 326.980469 308.234375 310.941406 L 308.234375 258.929688 L 501.777344 258.929688 L 501.777344 310.941406 C 501.777344 326.980469 514.730469 339.945312 530.765625 339.945312 C 546.800781 339.945312 559.757812 326.980469 559.757812 310.941406 L 559.757812 258.929688 L 635.066406 258.929688 L 679.28125 751.992188 Z M 130.890625 751.992188 " fill-opacity="1" fill-rule="nonzero"/></g></svg>